<svg xmlns="http://www.w3.org/2000/svg" width="640" height="420" viewBox="0 0 640 420" role="img" aria-labelledby="title desc">
  <title id="title">Constructivism and cognitive apprenticeship illustration</title>
  <desc id="desc">Stacked blocks and a guiding line suggest learning through building, modeling, and coaching.</desc>
  <rect width="640" height="420" rx="36" fill="#f5f8ff"/>
  <rect x="92" y="276" width="456" height="22" rx="11" fill="#dbe6ff"/>
  <rect x="134" y="214" width="122" height="56" rx="16" fill="#8fb4ff"/>
  <rect x="268" y="162" width="122" height="108" rx="16" fill="#f8d38b"/>
  <rect x="402" y="112" width="106" height="158" rx="16" fill="#89d2c5"/>
  <path d="M112 124c58 0 74-34 120-34 40 0 58 22 84 22 34 0 44-34 84-34 36 0 62 24 98 24" fill="none" stroke="#2856c5" stroke-width="10" stroke-linecap="round"/>
  <circle cx="110" cy="124" r="12" fill="#2856c5"/>
  <circle cx="498" cy="78" r="12" fill="#2856c5"/>
  <g fill="#0f2d6b" font-family="Inter, Arial, sans-serif">
    <text x="54" y="62" font-size="26" font-weight="700">CLT</text>
    <text x="54" y="88" font-size="18" opacity=".72">Build, model, scaffold</text>
  </g>
</svg>
